<svg width="630" height="650" viewBox="0 0 630 650" fill="none" xmlns="http://www.w3.org/2000/svg">
<path d="M266.326 664.198C245.758 652.886 228.732 632.471 212.802 615.734C178.712 579.919 143.773 535.422 124.73 489.515C112.375 459.73 107.613 428.248 106.338 396.189C105.116 365.487 105.888 332.583 118.016 303.836C130.087 275.222 153.925 255.607 180.103 240.191C223.557 214.601 272.466 197.85 322.088 189.392C396.971 176.628 487.629 174.82 551.852 221.603C567.268 232.833 577.787 248.449 591.557 261.308C604.593 273.483 618.835 283.746 629.51 298.289C634.686 305.341 638.45 313.027 645.665 318.336C649.05 320.827 651.716 322.454 653.839 326.121C655.396 328.81 664.243 332.845 662.208 334.88" stroke="black" stroke-width="10" stroke-linecap="round"/>
<path d="M499.139 261.723C470.574 242.848 445.772 221.966 421.691 197.65C405.924 181.729 387.297 163.126 379.39 141.664C375.298 130.558 366.108 92.1992 390.587 98.5851C410.378 103.748 425.472 134.24 434.754 150.062C446.497 170.076 455.745 191.52 468.813 210.714C471.276 214.331 473.482 218.105 476.122 221.6C476.868 222.586 477.269 225.585 478.144 224.71C479.997 222.857 471.744 206.843 471.146 204.882C462.195 175.545 454.513 142.263 458.626 111.415C460.725 95.6785 473.261 87.4331 482.421 103.328C501.693 136.772 503.254 179.045 511.736 216.001C513.648 224.333 513.849 237.6 518.734 244.928" stroke="black" stroke-width="10" stroke-linecap="round"/>
<path d="M220.674 409.841C226.321 425.946 236.697 456.037 259.211 453.536C276.633 451.6 272.719 421.306 266.899 411.69C258.005 396.996 242.842 388.82 225.929 388.82C216.855 388.82 215.419 388.381 215.419 397.579" stroke="black" stroke-width="10" stroke-linecap="round"/>
<path d="M310.01 327.511C316.69 340.871 326.496 364.984 344.168 367.703C354.835 369.344 360.614 357.631 360.614 348.531C360.614 332.436 317.718 297.379 310.01 320.504" stroke="black" stroke-width="10" stroke-linecap="round"/>
<path d="M313.513 542.969C342.672 554.976 368.434 561.555 399.736 555.231C428.227 549.475 442.621 522.875 451.508 497.425C460.395 471.977 462.646 443.161 457.152 416.847C454.736 405.276 448.085 396.962 443.139 387.069" stroke="black" stroke-width="10" stroke-linecap="round"/>
<path d="M311.777 544.663C331.141 523.652 355.58 507.482 372.536 484.36C379.565 474.776 385.325 464.412 392.029 454.608C397.53 446.563 403.011 438.636 407.19 429.814C412.472 418.663 418.466 408.511 425.657 398.523C429.612 393.03 435.416 390.246 440.02 385.642" stroke="black" stroke-width="10" stroke-linecap="round"/>
<path d="M5.36133 65.5018C22.2163 79.8151 36.7052 92.8385 59.6105 92.6264C78.3277 92.4531 91.7259 79.6351 98.0767 62.4879C103.118 48.8765 105.135 33.1372 105.135 18.6285C105.135 15.9003 102.843 1.35368 96.7284 5.85935C93.1024 8.53118 93.4977 19.9338 93.1594 23.4666C91.0844 45.1387 91.9744 66.7356 94.5077 88.3436C98.4369 121.857 104.524 155.906 115.208 187.959C116.008 190.358 116.675 189.247 116.715 187.325C116.901 178.397 116.715 169.446 116.715 160.517C116.715 148.627 112.116 124.87 122.425 115.706C131.232 107.878 145.419 129.953 149.55 134.662C160.176 146.775 179.09 156.75 194.599 146.558C207.73 137.929 201.682 85.2734 189.602 93.5781C183.816 97.5565 182.898 111.381 187.62 116.103C194.162 122.645 208.175 126.382 213.793 117.054C224.045 100.031 225.213 76.6948 225.213 57.412C225.213 46.4868 229.39 25.9231 219.503 17.5975C216.036 14.6777 219.082 43.8082 219.503 45.5152C222.599 58.0794 226.358 69.1981 237.348 76.8433C259.369 92.1621 266.785 45.0383 266.614 31.5564C266.562 27.4643 266.863 20.5737 262.331 18.7079C257.673 16.7898 260.167 41.0319 260.904 43.2945C263.521 51.3342 266.715 61.3544 275.497 64.8673C283.587 68.1033 295.899 67.4514 299.37 58.6017C301.345 53.5646 306.862 39.2152 303.573 33.4598C298.799 25.1039 293.689 45.2357 293.739 47.2601C293.964 56.3789 299.261 64.5126 309.125 64.0742C319.326 63.6208 320.863 48.6718 320.863 41.2324C320.863 32.1859 318.116 25.5287 308.094 25.5287C305.643 25.5287 299.28 26.5357 301.194 28.0666C305.536 31.5399 314.827 27.2818 317.929 24.1804C320.537 21.5718 323.519 17.0626 326.574 15.5354" stroke="black" stroke-width="10" stroke-linecap="round"/>
</svg>
