<svg viewBox="113.375 108.68965517241372 1587.2500000000005 1358.6206896551726" fill="none" xmlns="http://www.w3.org/2000/svg" xmlns:xlink="http://www.w3.org/1999/xlink" overflow="visible" width="1587.2500000000005px" height="1358.6206896551726px"><g id="Master/Office Supplies/Kanban Board"><g id="Group 955 Copy"><path id="Path" fill-rule="evenodd" clip-rule="evenodd" d="M740.643 1194C740.643 1194 733.958 1275.52 730.137 1302.05C726.317 1328.6 728.228 1357.97 702.441 1377.88C676.656 1397.79 658.943 1408.21 658.943 1408.21C658.943 1408.21 647.642 1415.49 663.305 1418.64C678.967 1421.79 1126.12 1420.88 1126.12 1420.88C1126.12 1420.88 1168.44 1419.51 1155.56 1410.83C1142.68 1402.15 1095.76 1383.89 1089.32 1349.2C1082.88 1314.49 1071.37 1195.78 1071.37 1195.78L740.643 1194Z" fill="#9FDDFF"/><path id="Path_2" d="M729.373 1313.42L740.72 1194H1068.59C1070.58 1210.12 1076.35 1256.58 1083.52 1313.42C1092.47 1384.48 1121.14 1386.27 1140.85 1399.41C1156.61 1409.92 1154.98 1416.52 1152.19 1418.52C991.149 1421.9 667.264 1426.64 660.097 1418.52C651.139 1408.37 672.041 1398.81 700.707 1380.9C723.64 1366.57 729.373 1329.94 729.373 1313.42Z" fill="#9FDDFF"/><path id="Shape" fill-rule="evenodd" clip-rule="evenodd" d="M738.808 1192H1070.44L1070.7 1194.09C1072.69 1210.16 1078.45 1256.45 1085.61 1313.11C1090.04 1348.22 1099.3 1365.8 1109.54 1376.24C1114.68 1381.48 1120.17 1385.01 1125.66 1388.07C1127.39 1389.04 1129.16 1389.98 1130.93 1390.91C1134.66 1392.88 1138.4 1394.86 1141.81 1397.13C1149.82 1402.45 1153.85 1407.07 1155.33 1410.97C1156.89 1415.1 1155.54 1418.42 1153.2 1420.09L1152.6 1420.52L1151.86 1420.53C1071.46 1422.22 950.401 1424.24 848.545 1424.83C797.62 1425.13 751.478 1425.07 717.611 1424.42C700.684 1424.1 686.793 1423.63 676.896 1422.98C671.954 1422.66 667.96 1422.3 665.065 1421.88C663.623 1421.66 662.391 1421.44 661.426 1421.16C660.945 1421.03 660.475 1420.88 660.056 1420.69C659.679 1420.52 659.132 1420.22 658.691 1419.72C657.361 1418.22 656.458 1416.58 656.133 1414.79C655.805 1412.98 656.103 1411.23 656.834 1409.57C658.24 1406.39 661.332 1403.39 665.214 1400.42C670.469 1396.39 677.922 1391.91 686.548 1386.7C690.717 1384.19 695.16 1381.51 699.762 1378.63C710.529 1371.92 717.442 1359.84 721.659 1347.1C725.862 1334.4 727.263 1321.42 727.263 1313.41V1313.29L738.808 1192ZM743.146 1196.76L732.033 1313.52C732.02 1321.98 730.552 1335.42 726.188 1348.59C721.819 1361.8 714.421 1375.11 702.291 1382.68C697.465 1385.68 692.904 1388.43 688.686 1390.98C680.232 1396.07 673.161 1400.33 668.118 1404.19C664.322 1407.1 662.086 1409.49 661.2 1411.5C660.785 1412.44 660.695 1413.22 660.826 1413.94C660.952 1414.63 661.313 1415.44 662.102 1416.39C662.223 1416.44 662.415 1416.5 662.699 1416.58C663.387 1416.77 664.396 1416.97 665.755 1417.16C668.461 1417.56 672.306 1417.92 677.205 1418.23C686.991 1418.88 700.795 1419.34 717.702 1419.66C751.507 1420.3 797.602 1420.36 848.517 1420.07C949.953 1419.48 1070.45 1417.47 1150.84 1415.79C1151.21 1415.26 1151.49 1414.31 1150.86 1412.65C1149.92 1410.15 1146.89 1406.24 1139.16 1401.08C1135.96 1398.95 1132.58 1397.17 1128.97 1395.26C1127.15 1394.31 1125.28 1393.31 1123.33 1392.23C1117.65 1389.06 1111.73 1385.26 1106.13 1379.57C1094.91 1368.14 1085.38 1349.41 1080.88 1313.7C1074.01 1259.33 1068.42 1214.49 1066.23 1196.76H743.146Z" fill="black"/><path id="Path_3" fill-rule="evenodd" clip-rule="evenodd" d="M772.643 1218C772.643 1218 765.958 1299.52 762.137 1326.05C758.317 1352.6 760.228 1381.97 734.441 1401.88C708.656 1421.79 690.943 1432.21 690.943 1432.21C690.943 1432.21 679.642 1439.49 695.305 1442.64C710.967 1445.79 1158.12 1444.88 1158.12 1444.88C1158.12 1444.88 1200.44 1443.51 1187.56 1434.83C1174.68 1426.15 1127.76 1407.89 1121.32 1373.2C1114.88 1338.5 1103.37 1219.78 1103.37 1219.78L772.643 1218Z" fill="#9FDDFF"/><path id="Path_4" d="M761.373 1337.42L772.72 1218H1100.59C1102.58 1234.12 1108.35 1280.58 1115.52 1337.42C1124.47 1408.48 1153.14 1410.27 1172.85 1423.41C1188.61 1433.92 1186.98 1440.52 1184.19 1442.52C1023.15 1445.9 699.264 1450.64 692.097 1442.52C683.139 1432.37 704.041 1422.81 732.707 1404.9C755.64 1390.57 761.373 1353.94 761.373 1337.42Z" fill="#9FDDFF"/><path id="Shape_2" fill-rule="evenodd" clip-rule="evenodd" d="M770.808 1216H1102.44L1102.7 1218.09C1104.69 1234.16 1110.45 1280.45 1117.61 1337.11C1122.04 1372.22 1131.3 1389.8 1141.54 1400.24C1146.68 1405.48 1152.17 1409.01 1157.66 1412.07C1159.39 1413.04 1161.16 1413.98 1162.93 1414.91C1166.66 1416.88 1170.4 1418.86 1173.81 1421.13C1181.82 1426.45 1185.85 1431.07 1187.33 1434.97C1188.89 1439.1 1187.54 1442.42 1185.2 1444.09L1184.6 1444.52L1183.86 1444.53C1103.46 1446.22 982.401 1448.24 880.545 1448.83C829.62 1449.13 783.478 1449.07 749.611 1448.42C732.684 1448.1 718.793 1447.63 708.896 1446.98C703.954 1446.66 699.96 1446.3 697.065 1445.88C695.623 1445.66 694.391 1445.44 693.426 1445.16C692.945 1445.03 692.475 1444.88 692.056 1444.69C691.679 1444.52 691.132 1444.22 690.691 1443.72C689.361 1442.22 688.458 1440.58 688.133 1438.79C687.805 1436.98 688.103 1435.23 688.834 1433.57C690.24 1430.39 693.332 1427.39 697.214 1424.42C702.469 1420.39 709.922 1415.91 718.548 1410.7C722.717 1408.19 727.16 1405.51 731.762 1402.63C742.529 1395.92 749.442 1383.84 753.659 1371.1C757.862 1358.4 759.263 1345.42 759.263 1337.41V1337.3L770.808 1216ZM775.146 1220.76L764.033 1337.53C764.02 1345.98 762.552 1359.42 758.188 1372.59C753.819 1385.8 746.421 1399.11 734.291 1406.68C729.465 1409.68 724.904 1412.43 720.686 1414.98C712.232 1420.07 705.161 1424.33 700.118 1428.19C696.322 1431.1 694.086 1433.49 693.2 1435.5C692.785 1436.44 692.695 1437.22 692.826 1437.94C692.952 1438.63 693.313 1439.44 694.102 1440.39C694.223 1440.44 694.415 1440.5 694.699 1440.58C695.387 1440.77 696.396 1440.97 697.755 1441.16C700.461 1441.56 704.306 1441.92 709.205 1442.23C718.991 1442.88 732.795 1443.34 749.702 1443.66C783.507 1444.3 829.602 1444.36 880.517 1444.07C981.953 1443.48 1102.45 1441.47 1182.84 1439.79C1183.21 1439.26 1183.49 1438.31 1182.86 1436.65C1181.92 1434.15 1178.89 1430.24 1171.16 1425.08C1167.96 1422.95 1164.58 1421.17 1160.97 1419.26C1159.15 1418.31 1157.28 1417.31 1155.33 1416.23C1149.65 1413.06 1143.73 1409.26 1138.13 1403.57C1126.91 1392.14 1117.38 1373.41 1112.88 1337.7C1106.01 1283.33 1100.42 1238.49 1098.23 1220.76H775.146Z" fill="black"/><path id="Path_5" fill-rule="evenodd" clip-rule="evenodd" d="M1106 1381H818V1376H1106V1381Z" fill="black"/><path id="Path_6" fill-rule="evenodd" clip-rule="evenodd" d="M1611.16 1217H178.838C152.418 1217 131 1195.57 131 1169.13V175.867C131 149.43 152.418 128 178.838 128H1611.16C1637.57 128 1659 149.43 1659 175.867V1169.13C1659 1195.57 1637.57 1217 1611.16 1217Z" fill="#9FDDFF"/><path id="Shape_3" fill-rule="evenodd" clip-rule="evenodd" d="M178.838 1212.22H1611.16C1634.94 1212.22 1654.22 1192.93 1654.22 1169.13V175.867C1654.22 152.07 1634.94 132.78 1611.16 132.78H178.838C155.056 132.78 135.777 152.07 135.777 175.867V1169.13C135.777 1192.93 155.056 1212.22 178.838 1212.22ZM178.838 1217H1611.16C1637.57 1217 1659 1195.57 1659 1169.13V175.867C1659 149.43 1637.57 128 1611.16 128H178.838C152.418 128 131 149.43 131 175.867V1169.13C131 1195.57 152.418 1217 178.838 1217Z" fill="black"/><path id="Path_7" fill-rule="evenodd" clip-rule="evenodd" d="M1635.16 1235H202.838C176.418 1235 155 1213.57 155 1187.13V193.867C155 167.43 176.418 146 202.838 146H1635.16C1661.57 146 1683 167.43 1683 193.867V1187.13C1683 1213.57 1661.57 1235 1635.16 1235Z" fill="#9FDDFF"/><path id="Shape_4" fill-rule="evenodd" clip-rule="evenodd" d="M202.838 1230.22H1635.16C1658.94 1230.22 1678.22 1210.93 1678.22 1187.13V193.867C1678.22 170.07 1658.94 150.78 1635.16 150.78H202.838C179.056 150.78 159.777 170.07 159.777 193.867V1187.13C159.777 1210.93 179.056 1230.22 202.838 1230.22ZM202.838 1235H1635.16C1661.57 1235 1683 1213.57 1683 1187.13V193.867C1683 167.43 1661.57 146 1635.16 146H202.838C176.418 146 155 167.43 155 193.867V1187.13C155 1213.57 176.418 1235 202.838 1235Z" fill="black"/><path id="Path_8" fill-rule="evenodd" clip-rule="evenodd" d="M205 1188H1644V207H205V1188Z" fill="#204EB2"/><path id="Shape_5" fill-rule="evenodd" clip-rule="evenodd" d="M1644 1188H205V207H1644V1188ZM1639.22 211.78H209.781V1183.22H1639.22V211.78Z" fill="black"/><path id="Path_9" fill-rule="evenodd" clip-rule="evenodd" d="M205 291H1644V207H205V291Z" fill="white"/><path id="Shape_6" fill-rule="evenodd" clip-rule="evenodd" d="M1644 291H205V207H1644V291ZM1639.22 211.8H209.781V286.2H1639.22V211.8Z" fill="black"/><path id="Path_10" fill-rule="evenodd" clip-rule="evenodd" d="M205 326H1644V284H205V326Z" fill="white"/><path id="Shape_7" fill-rule="evenodd" clip-rule="evenodd" d="M1644 326H205V284H1644V326ZM1639.22 288.8H209.781V321.2H1639.22V288.8Z" fill="black"/><path id="Path_11" fill-rule="evenodd" clip-rule="evenodd" d="M959 1107C959 1128.54 942.659 1146 922.5 1146C902.342 1146 886 1128.54 886 1107C886 1085.46 902.342 1068 922.5 1068C942.659 1068 959 1085.46 959 1107Z" fill="white"/><path id="Shape_8" fill-rule="evenodd" clip-rule="evenodd" d="M922.5 1141.19C939.764 1141.19 954.225 1126.15 954.225 1107C954.225 1087.85 939.764 1072.81 922.5 1072.81C905.237 1072.81 890.775 1087.85 890.775 1107C890.775 1126.15 905.237 1141.19 922.5 1141.19ZM922.5 1146C942.659 1146 959 1128.54 959 1107C959 1085.46 942.659 1068 922.5 1068C902.342 1068 886 1085.46 886 1107C886 1128.54 902.342 1146 922.5 1146Z" fill="black"/><path id="Path_12" fill-rule="evenodd" clip-rule="evenodd" d="M318 999H682V447H318V999Z" fill="white"/><path id="Shape_9" fill-rule="evenodd" clip-rule="evenodd" d="M315 445H685V1001H315V445ZM319.79 449.773V996.227H680.21V449.773H319.79Z" fill="black"/><path id="Path_13" fill-rule="evenodd" clip-rule="evenodd" d="M349 627H487V497H349V627Z" fill="#FFB1EA"/><path id="Shape_10" fill-rule="evenodd" clip-rule="evenodd" d="M346 494H489V629H346V494ZM350.767 498.779V624.221H484.233V498.779H350.767Z" fill="black"/><path id="Path_14" fill-rule="evenodd" clip-rule="evenodd" d="M349 779H487V649H349V779Z" fill="#FFB1EA"/><path id="Shape_11" fill-rule="evenodd" clip-rule="evenodd" d="M346 647H489V782H346V647ZM350.767 651.779V777.221H484.233V651.779H350.767Z" fill="black"/><path id="Path_15" fill-rule="evenodd" clip-rule="evenodd" d="M510 627H648V497H510V627Z" fill="#FFB1EA"/><path id="Shape_12" fill-rule="evenodd" clip-rule="evenodd" d="M508 494H651V629H508V494ZM512.767 498.779V624.221H646.233V498.779H512.767Z" fill="black"/><path id="Path_16" fill-rule="evenodd" clip-rule="evenodd" d="M510 779H648V649H510V779Z" fill="#FFB1EA"/><path id="Shape_13" fill-rule="evenodd" clip-rule="evenodd" d="M508 647H651V782H508V647ZM512.767 651.779V777.221H646.233V651.779H512.767Z" fill="black"/><path id="Path_17" fill-rule="evenodd" clip-rule="evenodd" d="M738 1000H1103V448H738V1000Z" fill="white"/><path id="Shape_14" fill-rule="evenodd" clip-rule="evenodd" d="M1103 1000H738V448H1103V1000ZM1098.23 452.779H742.771V995.221H1098.23V452.779Z" fill="black"/><path id="Path_18" fill-rule="evenodd" clip-rule="evenodd" d="M779 627H917V497H779V627Z" fill="#FFF59B"/><path id="Shape_15" fill-rule="evenodd" clip-rule="evenodd" d="M917 627H779V497H917V627ZM912.241 501.771H783.759V622.229H912.241V501.771Z" fill="black"/><path id="Path_19" fill-rule="evenodd" clip-rule="evenodd" d="M931 627H1069V497H931V627Z" fill="#FFF59B"/><path id="Shape_16" fill-rule="evenodd" clip-rule="evenodd" d="M1069 627H931V497H1069V627ZM1064.24 501.771H935.759V622.229H1064.24V501.771Z" fill="black"/><path id="Path_20" fill-rule="evenodd" clip-rule="evenodd" d="M1159 999H1523V447H1159V999Z" fill="white"/><path id="Shape_17" fill-rule="evenodd" clip-rule="evenodd" d="M1523 999H1159V447H1523V999ZM1518.23 451.779H1163.77V994.221H1518.23V451.779Z" fill="black"/><path id="Path_21" fill-rule="evenodd" clip-rule="evenodd" d="M1193 627H1331V497H1193V627Z" fill="#ABF0CF"/><path id="Shape_18" fill-rule="evenodd" clip-rule="evenodd" d="M1331 627H1193V497H1331V627ZM1326.24 501.771H1197.76V622.229H1326.24V501.771Z" fill="black"/><path id="Path_22" fill-rule="evenodd" clip-rule="evenodd" d="M1193 779H1331V649H1193V779Z" fill="#ABF0CF"/><path id="Shape_19" fill-rule="evenodd" clip-rule="evenodd" d="M1331 779H1193V649H1331V779ZM1326.24 653.771H1197.76V774.229H1326.24V653.771Z" fill="black"/><path id="Path_23" fill-rule="evenodd" clip-rule="evenodd" d="M1193 930H1331V800H1193V930Z" fill="#ABF0CF"/><path id="Shape_20" fill-rule="evenodd" clip-rule="evenodd" d="M1331 930H1193V800H1331V930ZM1326.24 804.771H1197.76V925.229H1326.24V804.771Z" fill="black"/><path id="Path_24" fill-rule="evenodd" clip-rule="evenodd" d="M1347 627H1485V497H1347V627Z" fill="#ABF0CF"/><path id="Shape_21" fill-rule="evenodd" clip-rule="evenodd" d="M1485 627H1347V497H1485V627ZM1480.24 501.771H1351.76V622.229H1480.24V501.771Z" fill="black"/><path id="Path_25" fill-rule="evenodd" clip-rule="evenodd" d="M1347 779H1485V649H1347V779Z" fill="#ABF0CF"/><path id="Shape_22" fill-rule="evenodd" clip-rule="evenodd" d="M1485 779H1347V649H1485V779ZM1480.24 653.771H1351.76V774.229H1480.24V653.771Z" fill="black"/><path id="Path_26" fill-rule="evenodd" clip-rule="evenodd" d="M315 1397H639V1073H315V1397Z" fill="#F9C818"/><path id="Shape_23" fill-rule="evenodd" clip-rule="evenodd" d="M639 1397H315V1073H639V1397ZM634.216 1077.78H319.784V1392.22H634.216V1077.78Z" fill="black"/><path id="Path_27" fill-rule="evenodd" clip-rule="evenodd" d="M315.022 1075C315.022 1075 312.513 1309.58 360.904 1360H658C658 1360 634.202 1364.43 639.482 1075H315.022Z" fill="#F9DC4A"/><path id="Shape_24" fill-rule="evenodd" clip-rule="evenodd" d="M653.899 1355.22C647.392 1341.41 635.791 1287.77 639.397 1079.77C639.424 1078.19 639.452 1076.6 639.482 1075H315.022C315.022 1075 312.513 1309.58 360.904 1359.99H657.863C657.953 1360.01 658 1359.99 658 1359.99H657.863C657.414 1359.96 655.895 1359.47 653.899 1355.22ZM648.68 1355.22C646.525 1349.88 644.195 1341.15 642.022 1326.75C636.73 1291.66 632.154 1221.29 634.604 1079.77H319.793C319.791 1081.25 319.792 1083.05 319.8 1085.16C319.827 1091.65 319.918 1100.98 320.176 1112.33C320.696 1135.05 321.892 1165.85 324.591 1198.2C327.294 1230.57 331.494 1264.37 337.995 1293.15C341.245 1307.54 345.049 1320.57 349.482 1331.49C353.565 1341.55 358.089 1349.58 363.02 1355.22H648.68Z" fill="black"/></g><g id="Group"><path id="Path_28" fill-rule="evenodd" clip-rule="evenodd" d="M333 253C333 260.18 327.404 266 320.5 266C313.597 266 308 260.18 308 253C308 245.82 313.597 240 320.5 240C327.404 240 333 245.82 333 253Z" fill="#E93737"/><path id="Shape_25" fill-rule="evenodd" clip-rule="evenodd" d="M320.5 261.211C324.445 261.211 328.119 257.8 328.119 253C328.119 248.199 324.445 244.789 320.5 244.789C316.556 244.789 312.881 248.199 312.881 253C312.881 257.8 316.556 261.211 320.5 261.211ZM320.5 266C327.404 266 333 260.18 333 253C333 245.82 327.404 240 320.5 240C313.597 240 308 245.82 308 253C308 260.18 313.597 266 320.5 266Z" fill="black"/><path id="Path_29" fill-rule="evenodd" clip-rule="evenodd" d="M383 253C383 260.18 377.404 266 370.501 266C363.596 266 358 260.18 358 253C358 245.82 363.596 240 370.501 240C377.404 240 383 245.82 383 253Z" fill="#56ACF6"/><path id="Shape_26" fill-rule="evenodd" clip-rule="evenodd" d="M370.501 261.21C374.445 261.21 378.119 257.8 378.119 253C378.119 248.199 374.445 244.79 370.501 244.79C366.555 244.79 362.881 248.199 362.881 253C362.881 257.8 366.555 261.21 370.501 261.21ZM370.501 266C377.404 266 383 260.18 383 253C383 245.82 377.404 240 370.501 240C363.596 240 358 245.82 358 253C358 260.18 363.596 266 370.501 266Z" fill="black"/><path id="Path_30" fill-rule="evenodd" clip-rule="evenodd" d="M435 253.001C435 260.18 429.403 266 422.499 266C415.596 266 410 260.18 410 253.001C410 245.821 415.596 240 422.499 240C429.403 240 435 245.821 435 253.001Z" fill="#08AEB5"/><path id="Shape_27" fill-rule="evenodd" clip-rule="evenodd" d="M422.499 261.21C426.445 261.21 430.119 257.801 430.119 253.001C430.119 248.2 426.444 244.79 422.499 244.79C418.555 244.79 414.881 248.2 414.881 253.001C414.881 257.801 418.555 261.21 422.499 261.21ZM422.499 266C429.403 266 435 260.18 435 253.001C435 245.821 429.403 240 422.499 240C415.596 240 410 245.821 410 253.001C410 260.18 415.596 266 422.499 266Z" fill="black"/></g></g></svg>