<svg viewBox="453.5 289.83908045977 906.9999999999998 928.3908045977012" fill="none" xmlns="http://www.w3.org/2000/svg" xmlns:xlink="http://www.w3.org/1999/xlink" overflow="visible" width="906.9999999999998px" height="928.3908045977012px"><g id="Master/Marketing/Mail"><g id="Group 2"><rect id="Rectangle" x="457" y="528" width="899" height="491" rx="139" fill="#F9C818"/><path id="Rectangle Copy 2" fill-rule="evenodd" clip-rule="evenodd" d="M1356 667C1356 590.232 1293.77 528 1217 528H596C519.232 528 457 590.232 457 667V880C457 956.768 519.232 1019 596 1019H1217C1293.77 1019 1356 956.768 1356 880V667ZM596 532H1217L1219.23 532.018C1292.76 533.21 1352 593.187 1352 667V880L1351.98 882.232C1350.79 955.761 1290.81 1015 1217 1015H596L593.768 1014.98C520.239 1013.79 461 953.813 461 880V667L461.018 664.768C462.21 591.239 522.187 532 596 532Z" fill="black"/><rect id="Rectangle Copy" x="457" y="728" width="899" height="491" rx="26" fill="#F9DC4A"/><path id="Rectangle Copy 3" fill-rule="evenodd" clip-rule="evenodd" d="M1356 754C1356 739.641 1344.36 728 1330 728H483C468.641 728 457 739.641 457 754V1193C457 1207.36 468.641 1219 483 1219H1330C1344.36 1219 1356 1207.36 1356 1193V754ZM483 732H1330L1330.36 732.003C1342.35 732.197 1352 741.971 1352 754V1193L1352 1193.36C1351.8 1205.35 1342.03 1215 1330 1215H483L482.636 1215C470.654 1214.8 461 1205.03 461 1193V754L461.003 753.636C461.197 741.654 470.971 732 483 732Z" fill="black"/><rect id="Rectangle_2" x="578" y="304" width="657" height="849" rx="26" fill="white"/><path id="Rectangle Copy 4" fill-rule="evenodd" clip-rule="evenodd" d="M1235 330C1235 315.641 1224.29 304 1211.08 304H601.924C588.711 304 578 315.641 578 330V1127C578 1141.36 588.711 1153 601.924 1153H1211.08C1224.29 1153 1235 1141.36 1235 1127V330ZM602.255 308H1211.75L1212.08 308.003C1223.11 308.197 1232 317.971 1232 330V1127L1232 1127.36C1231.82 1139.35 1222.82 1149 1211.75 1149H602.255L601.92 1149C590.888 1148.8 582 1139.03 582 1127V330L582.003 329.636C582.182 317.654 591.18 308 602.255 308Z" fill="black"/><path id="Path 103" fill-rule="evenodd" clip-rule="evenodd" d="M458.926 754L906.5 1019.36L1354.2 754C1354.2 754 1354.2 1182.19 1354.2 1182.19C1354.2 1182.19 1356 1201.02 1348 1209.66C1339.99 1218.3 1326.04 1216.66 1326.04 1216.66H481.964C481.964 1216.66 458.926 1213.87 458.926 1189.35C458.926 1164.83 458.926 754 458.926 754Z" fill="#F9DC4A"/><path id="Path 103 Copy" fill-rule="evenodd" clip-rule="evenodd" d="M1356.28 751.001L1356.28 1182.6L1356.31 1183.03L1356.36 1183.84C1356.62 1188.56 1356.4 1193.88 1355.34 1198.96C1354.25 1204.16 1352.39 1208.46 1349.54 1211.53C1343.76 1217.76 1335.85 1220.3 1325.99 1219.17L481.918 1219.17L481.309 1219.09C465.246 1216.97 457 1207.02 457 1189.86V751L906.574 1017.55L1356.28 751.001ZM1352.28 1182.7L1352.28 758.021L906.574 1022.2L460.999 758.021L461 1189.86C461 1205.06 467.807 1213.28 481.851 1215.13L482.159 1215.17L1326.23 1215.17L1326.85 1215.24C1335.3 1216.13 1341.82 1213.98 1346.6 1208.81C1348.88 1206.35 1350.47 1202.69 1351.42 1198.15C1352.4 1193.46 1352.61 1188.45 1352.37 1184.05C1352.36 1183.84 1352.34 1183.65 1352.33 1183.49L1352.29 1182.89L1352.28 1182.7Z" fill="black"/><g id="Group"><path id="Path 102" fill-rule="evenodd" clip-rule="evenodd" d="M481.965 1216.3L827.633 883.818C827.633 883.818 874.818 837 906.465 837C938.112 837 988.984 883.818 988.984 883.818L1330.96 1216.3H481.965Z" fill="#F9DC4A"/><path id="Path 102 Copy" fill-rule="evenodd" clip-rule="evenodd" d="M826.224 882.398C858.021 850.848 884.706 835 906.464 835C928.196 835 956.085 850.823 990.378 882.384L1335.89 1218.3H477L826.224 882.398ZM987.63 885.29C954.388 854.698 927.472 839.309 907.08 839.005L906.464 839C886.027 839 860.157 854.364 829.02 885.26L486.928 1214.3H1326.04L987.63 885.29Z" fill="black"/></g></g><path id="Path 104" d="M1017.73 436.5V440.5H797V436.5H1017.73Z" fill="black"/><path id="Path 104 Copy" d="M1123 497V501H678V497H1123Z" fill="black"/><path id="Path 104 Copy 2" d="M1123 528V532H678V528H1123Z" fill="black"/><path id="Path 104 Copy 3" d="M1123 559V563H678V559H1123Z" fill="black"/><path id="Path 104 Copy 4" d="M1123 590V594H678V590H1123Z" fill="black"/><path id="Path 104 Copy 5" d="M1123 621V625H678V621H1123Z" fill="black"/><path id="Path 104 Copy 6" d="M871 652V656H678V652H871Z" fill="black"/></g></svg>