<svg viewBox="362.79999999999995 470.9885057471263 1088.3999999999999 634.0229885057472" fill="none" xmlns="http://www.w3.org/2000/svg" xmlns:xlink="http://www.w3.org/1999/xlink" overflow="visible" width="1088.3999999999999px" height="634.0229885057472px"><g id="Master/Marketing/Paper Airplane"><g id="Group"><path id="Path 161" fill-rule="evenodd" clip-rule="evenodd" d="M656.102 814.974L687.808 1062.36L1418.1 493.357L1021.13 620.323L656.102 814.974Z" fill="#FFB1D0"/><path id="Path 161 Copy" fill-rule="evenodd" clip-rule="evenodd" d="M1429.38 487.164L687.46 1065.23L655.133 812.993L1021.54 617.607L1429.38 487.164ZM690.535 1057.76L1409.2 497.818L1023.1 621.306L659.451 815.224L690.535 1057.76Z" fill="black"/><path id="Path 162" fill-rule="evenodd" clip-rule="evenodd" d="M688.102 1062.36C688.102 1062.36 752.002 864.357 756.958 864.357C761.914 864.357 870.102 882.451 870.102 882.451L852.621 932.896L688.102 1062.36Z" fill="#F382AF"/><path id="Path 162 Copy" fill-rule="evenodd" clip-rule="evenodd" d="M750.303 874.678C754.31 864.631 755.906 861.49 758.145 861.49C761.321 861.49 792.472 866.426 852.847 876.478L873.954 880.001L855.506 933.238L685.371 1067.12L689.29 1054.98C708.829 994.508 724.119 948.308 735.163 916.375L736.866 911.467C742.169 896.236 746.411 884.572 749.595 876.468L750.303 874.678ZM759.511 865.601L758.85 865.533L758.748 865.694C758.548 866.012 758.314 866.427 758.05 866.936L757.776 867.475C756.862 869.311 755.681 872.026 754.241 875.607L753.669 877.041C750.531 884.963 746.287 896.595 740.941 911.928L738.657 918.511C728.912 946.718 715.896 985.914 699.609 1036.1L693.208 1055.86L852.11 930.82L868.624 883.165L846.212 879.43C795.546 871.011 766.364 866.36 759.511 865.601Z" fill="black"/><path id="Path 159" fill-rule="evenodd" clip-rule="evenodd" d="M382.102 678.517L1418.1 493.357L655.952 815.357L382.102 678.517Z" fill="#FFC6DD"/><path id="Path 159 Copy" fill-rule="evenodd" clip-rule="evenodd" d="M1436.53 487.377L657.071 816.691L377 676.742L1436.53 487.377ZM657.211 812.289L1402.05 497.602L389.58 678.557L657.211 812.289Z" fill="black"/><path id="Path 160" fill-rule="evenodd" clip-rule="evenodd" d="M757.102 864.273L1418.1 493.357L1055.19 1087.36L757.102 864.273Z" fill="#FFC6DD"/><path id="Path 160 Copy" fill-rule="evenodd" clip-rule="evenodd" d="M1424.99 487L1056.94 1089.41L754.633 863.166L1424.99 487ZM1055.82 1083.57L1413.59 497.982L761.95 863.646L1055.82 1083.57Z" fill="black"/></g></g></svg>