<svg viewBox="408.1500000000001 335.1264367816091 997.6999999999999 905.7471264367814" fill="none" xmlns="http://www.w3.org/2000/svg" xmlns:xlink="http://www.w3.org/1999/xlink" overflow="visible" width="997.6999999999999px" height="905.7471264367814px"><g id="Master/Marketing/Planet"><g id="Group 4"><g id="Group 4 Copy"><circle id="Oval" cx="902.5" cy="896.5" r="332.5" fill="#9FDDFF"/><path id="Oval Copy" fill-rule="evenodd" clip-rule="evenodd" d="M1235 896.5C1235 712.865 1086.13 564 902.5 564C718.865 564 570 712.865 570 896.5C570 1080.13 718.865 1229 902.5 1229C1086.13 1229 1235 1080.13 1235 896.5ZM574 896.5C574 715.074 721.074 568 902.5 568C1083.93 568 1231 715.074 1231 896.5C1231 1077.93 1083.93 1225 902.5 1225C721.074 1225 574 1077.93 574 896.5Z" fill="black"/><g id="Group 3"><ellipse id="Oval Copy 2" cx="1068.6" cy="1065" rx="91.5991" ry="93" fill="#204EB2"/><circle id="Oval Copy 3" cx="639" cy="944" r="28" fill="#204EB2"/><circle id="Oval Copy 4" cx="1054.5" cy="694.5" r="50.5" fill="#74C3EF"/><circle id="Oval Copy 7" cx="772.5" cy="1142.5" r="50.5" fill="#74C3EF"/><circle id="Oval Copy 5" cx="1177.5" cy="949.5" r="22.5" fill="#74C3EF"/><circle id="Oval Copy 6" cx="772.5" cy="840.5" r="22.5" fill="#74C3EF"/></g><g id="Group"><path id="Path 90 Copy" d="M1005.19 788.152L1008.81 789.846C1001.72 805.013 989.783 812.7 973.296 812.7C956.949 812.7 945.517 805.134 939.34 790.225L939.145 789.746L942.855 788.252C948.374 801.961 958.404 808.7 973.296 808.7C988.052 808.7 998.512 802.073 1004.97 788.619L1005.19 788.152Z" fill="black"/><path id="Path 90 Copy 2" d="M860.188 788.152L863.812 789.846C856.721 805.013 844.783 812.7 828.296 812.7C811.949 812.7 800.517 805.134 794.34 790.225L794.145 789.746L797.855 788.252C803.374 801.961 813.404 808.7 828.296 808.7C843.052 808.7 853.512 802.073 859.967 788.619L860.188 788.152Z" fill="black"/></g><g id="Group 2"><path id="Path 89" d="M1114.61 842.777L1117.74 845.263C1068.23 907.702 996.087 938.922 901.501 938.922C807.845 938.922 737.572 908.31 690.88 847.082L689.473 845.217L692.677 842.823C738.556 904.221 808.096 934.922 901.501 934.922C993.987 934.922 1064.47 904.819 1113.14 844.611L1114.61 842.777Z" fill="black"/><path id="Path 91" d="M703.481 820.863L707.476 821.066C706.868 833.063 701.643 841.427 691.901 845.842C682.538 850.085 670.829 850.155 656.816 846.143L656.113 845.939L657.243 842.102C670.721 846.069 681.709 846.069 690.25 842.198C698.437 838.488 702.806 831.644 703.452 821.363L703.481 820.863Z" fill="black"/><path id="Path 91 Copy" d="M1102.43 820.898L1098.44 821.101C1099.05 833.098 1104.27 841.462 1114.01 845.877C1123.38 850.12 1135.08 850.19 1149.1 846.178L1149.8 845.974L1148.67 842.137C1135.19 846.104 1124.21 846.104 1115.66 842.234C1107.48 838.523 1103.11 831.679 1102.46 821.399L1102.43 820.898Z" fill="black"/></g></g><path id="Path 163" fill-rule="evenodd" clip-rule="evenodd" d="M723.195 619.02C723.195 619.02 727.262 646.381 751.071 661.496C774.88 676.612 816.639 673.646 837.516 646.333C858.393 619.02 845.705 581.343 839.089 572.672C839.089 572.672 806.777 575.564 778.21 587.15C749.643 598.736 723.195 619.02 723.195 619.02Z" fill="#204EB2"/><path id="Path 164" fill-rule="evenodd" clip-rule="evenodd" d="M889.5 367.232L889 566.232H911.5V367.232H889.5Z" fill="#FF2E52"/><path id="Path 164 Copy" fill-rule="evenodd" clip-rule="evenodd" d="M888.51 364.232H914.505V567.232H888L888.51 364.232ZM910.504 563.232V368.232H892.499L892.009 563.232H910.504Z" fill="black"/><path id="Path 165" fill-rule="evenodd" clip-rule="evenodd" d="M913.5 366.232C913.5 366.232 928.645 401.072 928.645 421.779C928.645 442.486 913.5 483.784 913.5 483.784C913.5 483.784 987.438 461.826 1038.64 483.784C1089.84 505.743 1139.4 478.373 1139.4 478.373V357.75C1139.4 357.75 1095.67 379.979 1061.06 366.232C1026.45 352.485 993.137 350 968.932 350C944.728 350 913.5 366.232 913.5 366.232Z" fill="#FFC6DD"/><path id="Path 165 Copy" fill-rule="evenodd" clip-rule="evenodd" d="M913.585 363.458C934.667 352.499 953.446 347 969.94 347C1002.71 347 1032.94 351.511 1062.81 363.373L1063.48 363.638C1085.81 372.251 1111.12 369.398 1139.5 354.967L1142.41 353.49V478.553L1141.38 479.124C1107.79 497.667 1073.56 499.506 1038.86 484.622L1037.84 484.193C1004.37 470.187 963.464 470.331 915.076 484.701L911.258 485.835L912.962 481.187C922.762 454.312 927.652 434.144 927.652 420.779C927.652 407.3 922.67 389.027 912.673 366.029L911.929 364.318L913.585 363.458ZM1060.13 366.616C1031.18 355.319 1001.8 351 969.94 351C954.631 351 937.067 356.009 917.264 366.064L917.083 366.156L917.52 367.18C926.805 389.059 931.523 406.722 931.649 420.227L931.652 420.779C931.652 434.091 927.106 453.441 918.033 478.914L917.727 479.766L918.391 479.578C965.677 466.256 1006.03 466.542 1039.39 480.505L1041.42 481.365C1073.97 495.023 1105.94 493.466 1137.49 476.68L1138.41 476.186V359.975L1137.78 360.282C1109.85 373.666 1084.57 376.061 1062.04 367.369L1060.13 366.616Z" fill="black"/><path id="Path 166" d="M1217.13 788.512C1320.65 792.385 1380.46 815.73 1389.6 861.531C1393.2 879.53 1388.01 895.122 1374.22 908.002C1361.43 919.946 1341.14 929.727 1312.45 938.169C1260.96 953.319 1182.33 964.552 1051.58 976.652C931.033 987.808 784.569 987.383 664.86 975.296C530.857 961.766 444.161 935.936 427.152 897.757C414.638 869.668 423.195 845.247 451.496 826.813C477.704 809.741 521.494 797.085 583.129 788.512L587.674 788.189L583.422 803.618C524.73 811.905 483.398 823.934 459.683 839.382C437.311 853.954 431.477 870.605 440.854 891.653C454.563 922.426 538.638 947.475 666.367 960.372C785.109 972.361 930.605 972.784 1050.2 961.716L1057.92 960.996C1183.1 949.257 1258.97 938.271 1308.22 923.779C1360.26 908.463 1380 890.033 1374.9 864.469C1367.69 828.388 1317.33 807.241 1222.03 803.293V803.618L1217.13 788.512Z" fill="#F9DC4A"/><path id="Path 166 Copy" fill-rule="evenodd" clip-rule="evenodd" d="M590.811 785.805L585.46 805.225L582.419 805.656C525.119 813.868 484.498 825.714 461.233 840.868C439.728 854.875 434.148 870.469 443.139 890.65C456.304 920.201 539.091 945.275 667.026 958.193C785.318 970.136 930.679 970.621 1050.47 959.535L1058.19 958.816C1185.34 946.891 1259.79 935.889 1308.11 921.671C1358.73 906.775 1378.29 889.181 1373.39 864.671C1366.36 829.439 1315.83 808.971 1222.41 805.102L1224.49 805.192L1224.49 816.083L1214.81 786.217L1217.67 786.324C1323.97 790.301 1382.79 814.704 1392.02 860.95C1395.75 879.618 1390.35 895.913 1376.04 909.274C1363.38 921.099 1343.59 930.86 1315.41 939.323L1313.47 939.898C1262.78 954.815 1185.72 966.1 1052.22 978.454C931.215 989.653 784.628 989.163 665.118 977.096C526.212 963.071 442.756 936.479 425.783 898.381C412.891 869.441 421.684 843.954 450.862 824.948C477.283 807.738 521.2 794.981 583.311 786.342L583.445 786.328L590.811 785.805ZM582.299 801.632L585.452 790.195L583.797 790.312L582.021 790.562C522.029 799.035 479.474 811.396 453.826 827.796L453.046 828.299C425.454 846.272 417.377 869.683 429.437 896.754C445.55 932.922 528.174 959.249 665.52 973.117C784.773 985.157 931.101 985.646 1051.85 974.471C1185.1 962.14 1261.97 950.883 1312.34 936.06C1341.01 927.625 1360.9 917.944 1373.31 906.351C1386.62 893.926 1391.56 879.029 1388.1 861.733C1379.54 818.854 1324.4 795.193 1223.74 790.58L1220.38 790.434L1223.86 801.161L1225.41 801.229C1317.79 805.426 1368.82 826.097 1377.08 862.76L1377.32 863.887C1382.74 891.078 1361.6 910.1 1309.24 925.508C1260.6 939.82 1185.96 950.851 1058.57 962.798L1050.84 963.518C930.792 974.628 785.173 974.142 666.625 962.172C537.045 949.089 453.525 923.792 439.485 892.277C429.653 870.207 435.972 852.548 459.049 837.516C482.669 822.131 523.191 810.228 580.096 801.95L582.299 801.632Z" fill="black"/></g></g></svg>